<?xml version="1.0" standalone="no"?>
<!DOCTYPE svg PUBLIC "-//W3C//DTD SVG 20010904//EN"
 "http://www.w3.org/TR/2001/REC-SVG-20010904/DTD/svg10.dtd">
<svg version="1.0" xmlns="http://www.w3.org/2000/svg"
 width="487.000000pt" height="487.000000pt" viewBox="0 0 487.000000 487.000000"
 preserveAspectRatio="xMidYMid meet">
<metadata>
Created by potrace 1.11, written by Peter Selinger 2001-2013
</metadata>
<g transform="translate(0.000000,487.000000) scale(0.100000,-0.100000)"
fill="#000000" stroke="none">
<path d="M1310 2410 l0 -1780 255 0 255 0 0 273 c1 149 2 462 3 694 l2 423
410 1 c442 0 459 1 610 25 274 44 453 152 644 391 87 110 171 301 202 458 8
40 13 130 13 210 -1 256 -56 443 -191 647 -82 125 -287 288 -444 354 -175 74
-311 84 -1131 84 l-628 0 0 -1780z m1446 1259 c79 -14 206 -75 274 -131 107
-88 160 -225 160 -412 0 -119 -18 -201 -61 -291 -64 -131 -178 -233 -309 -277
-63 -22 -81 -23 -530 -26 l-465 -3 0 575 0 576 436 0 c269 0 458 -4 495 -11z"/>
</g>
</svg>
